<svg width="46" height="18" viewBox="0 0 46 18" fill="none" xmlns="http://www.w3.org/2000/svg">
<path d="M9.99135 18H11.4635C20.3206 18 21.7203 12.7788 21.7203 9.08344V0H14.8664V8.9404C14.8664 11.2291 13.7803 12.9219 10.8843 12.9219H10.6912C7.0953 12.9219 6.8057 10.5616 6.7333 9.8702H0V10.0132C0 13.0887 1.47215 18 9.99135 18Z" fill="white"/>
<path d="M28.5755 4.31523H36.4431C37.9635 4.31523 38.5186 4.98278 38.5186 5.81722V5.84106C38.5186 6.69934 37.9394 7.36689 36.4431 7.36689H28.5755V4.31523ZM28.5755 11.6583H35.1398C37.8428 11.6583 38.784 12.6834 38.784 14.7338V16.8079C38.784 17.3086 38.8564 17.547 39.0012 17.7377H46V17.6185C45.8311 17.3086 45.6621 16.8556 45.6621 15.6159V12.9934C45.6621 10.7046 44.1658 9.27417 41.9697 8.77351C43.3212 8.43973 45.5897 7.39073 45.5897 4.81589V4.55364C45.5897 1.66887 43.297 0 38.0359 0H21.7215V17.7377H28.5755V11.6583Z" fill="white"/>
</svg>
