<svg width="343" height="64" viewBox="0 0 343 64" fill="none" xmlns="http://www.w3.org/2000/svg">
<g clip-path="url(#clip0_805_2503)">
<path d="M81.7 38.3V39.3L82.5 38.7L90.9 32.4L91.4333 32L90.9 31.6L82.5 25.3L81.7 24.7V25.7V38.3ZM71.5 32C71.5 24.5481 77.5481 18.5 85 18.5C92.4519 18.5 98.5 24.5481 98.5 32C98.5 39.4519 92.4519 45.5 85 45.5C77.5481 45.5 71.5 39.4519 71.5 32Z" fill="white" stroke="white"/>
</g>
<path d="M118.763 37.5L115.434 25.8636H118.121L120.048 33.9489H120.144L122.269 25.8636H124.57L126.69 33.9659H126.792L128.718 25.8636H131.406L128.076 37.5H125.678L123.462 29.892H123.371L121.161 37.5H118.763ZM134.228 37.6648C133.671 37.6648 133.175 37.5682 132.739 37.375C132.304 37.178 131.959 36.8883 131.705 36.5057C131.455 36.1193 131.33 35.6383 131.33 35.0625C131.33 34.5777 131.419 34.1705 131.597 33.8409C131.775 33.5114 132.018 33.2462 132.325 33.0455C132.631 32.8447 132.98 32.6932 133.37 32.5909C133.764 32.4886 134.177 32.4167 134.609 32.375C135.116 32.322 135.525 32.2727 135.836 32.2273C136.147 32.178 136.372 32.1061 136.512 32.0114C136.652 31.9167 136.722 31.7765 136.722 31.5909V31.5568C136.722 31.197 136.609 30.9186 136.381 30.7216C136.158 30.5246 135.84 30.4261 135.427 30.4261C134.991 30.4261 134.645 30.5227 134.387 30.7159C134.129 30.9053 133.959 31.1439 133.876 31.4318L131.637 31.25C131.751 30.7197 131.974 30.2614 132.308 29.875C132.641 29.4848 133.071 29.1856 133.597 28.9773C134.128 28.7652 134.741 28.6591 135.438 28.6591C135.923 28.6591 136.387 28.7159 136.83 28.8295C137.277 28.9432 137.673 29.1193 138.018 29.358C138.366 29.5966 138.641 29.9034 138.842 30.2784C139.042 30.6496 139.143 31.0947 139.143 31.6136V37.5H136.847V36.2898H136.779C136.639 36.5625 136.451 36.803 136.217 37.0114C135.982 37.2159 135.7 37.3769 135.37 37.4943C135.04 37.608 134.66 37.6648 134.228 37.6648ZM134.921 35.9943C135.277 35.9943 135.592 35.9242 135.864 35.7841C136.137 35.6402 136.351 35.447 136.506 35.2045C136.662 34.9621 136.739 34.6875 136.739 34.3807V33.4545C136.664 33.5038 136.559 33.5492 136.427 33.5909C136.298 33.6288 136.152 33.6648 135.989 33.6989C135.826 33.7292 135.664 33.7576 135.501 33.7841C135.338 33.8068 135.19 33.8277 135.058 33.8466C134.773 33.8883 134.525 33.9545 134.313 34.0455C134.101 34.1364 133.936 34.2595 133.819 34.4148C133.701 34.5663 133.643 34.7557 133.643 34.983C133.643 35.3125 133.762 35.5644 134.001 35.7386C134.243 35.9091 134.55 35.9943 134.921 35.9943ZM145.663 28.7727V30.5909H140.407V28.7727H145.663ZM141.6 26.6818H144.021V34.8182C144.021 35.0417 144.055 35.2159 144.123 35.3409C144.191 35.4621 144.286 35.5473 144.407 35.5966C144.532 35.6458 144.676 35.6705 144.839 35.6705C144.952 35.6705 145.066 35.661 145.18 35.642C145.293 35.6193 145.38 35.6023 145.441 35.5909L145.822 37.392C145.701 37.4299 145.53 37.4735 145.31 37.5227C145.091 37.5758 144.824 37.608 144.509 37.6193C143.926 37.642 143.415 37.5644 142.975 37.3864C142.54 37.2083 142.201 36.9318 141.958 36.5568C141.716 36.1818 141.596 35.7083 141.6 35.1364V26.6818ZM151.089 37.6705C150.195 37.6705 149.426 37.4811 148.782 37.1023C148.142 36.7197 147.649 36.1894 147.305 35.5114C146.964 34.8333 146.793 34.053 146.793 33.1705C146.793 32.2765 146.966 31.4924 147.31 30.8182C147.659 30.1402 148.153 29.6117 148.793 29.233C149.433 28.8504 150.195 28.6591 151.077 28.6591C151.839 28.6591 152.505 28.7973 153.077 29.0739C153.649 29.3504 154.102 29.7386 154.435 30.2386C154.769 30.7386 154.952 31.3258 154.987 32H152.702C152.638 31.5644 152.468 31.214 152.191 30.9489C151.918 30.6799 151.56 30.5455 151.117 30.5455C150.742 30.5455 150.415 30.6477 150.134 30.8523C149.858 31.053 149.642 31.3466 149.487 31.733C149.331 32.1193 149.254 32.5871 149.254 33.1364C149.254 33.6932 149.329 34.1667 149.481 34.5568C149.636 34.947 149.854 35.2443 150.134 35.4489C150.415 35.6534 150.742 35.7557 151.117 35.7557C151.394 35.7557 151.642 35.6989 151.862 35.5852C152.085 35.4716 152.269 35.3068 152.413 35.0909C152.56 34.8712 152.657 34.608 152.702 34.3011H154.987C154.949 34.9678 154.767 35.5549 154.441 36.0625C154.119 36.5663 153.674 36.9602 153.106 37.2443C152.538 37.5284 151.865 37.6705 151.089 37.6705ZM158.957 32.4545V37.5H156.536V25.8636H158.888V30.3125H158.991C159.188 29.7973 159.506 29.3939 159.945 29.1023C160.385 28.8068 160.936 28.6591 161.599 28.6591C162.205 28.6591 162.733 28.7917 163.184 29.0568C163.638 29.3182 163.991 29.6951 164.241 30.1875C164.495 30.6761 164.62 31.2614 164.616 31.9432V37.5H162.195V32.375C162.199 31.8371 162.063 31.4186 161.786 31.1193C161.513 30.8201 161.131 30.6705 160.638 30.6705C160.309 30.6705 160.017 30.7405 159.763 30.8807C159.513 31.0208 159.317 31.2254 159.173 31.4943C159.032 31.7595 158.96 32.0795 158.957 32.4545ZM172.644 32.4545V37.5H170.224V25.8636H172.576V30.3125H172.678C172.875 29.7973 173.193 29.3939 173.633 29.1023C174.072 28.8068 174.623 28.6591 175.286 28.6591C175.892 28.6591 176.421 28.7917 176.871 29.0568C177.326 29.3182 177.678 29.6951 177.928 30.1875C178.182 30.6761 178.307 31.2614 178.303 31.9432V37.5H175.883V32.375C175.887 31.8371 175.75 31.4186 175.474 31.1193C175.201 30.8201 174.818 30.6705 174.326 30.6705C173.996 30.6705 173.705 30.7405 173.451 30.8807C173.201 31.0208 173.004 31.2254 172.86 31.4943C172.72 31.7595 172.648 32.0795 172.644 32.4545ZM184.151 37.6705C183.269 37.6705 182.505 37.483 181.862 37.108C181.221 36.7292 180.727 36.2027 180.379 35.5284C180.03 34.8504 179.856 34.0644 179.856 33.1705C179.856 32.2689 180.03 31.4811 180.379 30.8068C180.727 30.1288 181.221 29.6023 181.862 29.2273C182.505 28.8485 183.269 28.6591 184.151 28.6591C185.034 28.6591 185.795 28.8485 186.435 29.2273C187.079 29.6023 187.576 30.1288 187.924 30.8068C188.272 31.4811 188.447 32.2689 188.447 33.1705C188.447 34.0644 188.272 34.8504 187.924 35.5284C187.576 36.2027 187.079 36.7292 186.435 37.108C185.795 37.483 185.034 37.6705 184.151 37.6705ZM184.163 35.7955C184.564 35.7955 184.899 35.6818 185.168 35.4545C185.437 35.2235 185.64 34.9091 185.776 34.5114C185.916 34.1136 185.987 33.661 185.987 33.1534C185.987 32.6458 185.916 32.1932 185.776 31.7955C185.64 31.3977 185.437 31.0833 185.168 30.8523C184.899 30.6212 184.564 30.5057 184.163 30.5057C183.757 30.5057 183.416 30.6212 183.14 30.8523C182.867 31.0833 182.661 31.3977 182.521 31.7955C182.384 32.1932 182.316 32.6458 182.316 33.1534C182.316 33.661 182.384 34.1136 182.521 34.5114C182.661 34.9091 182.867 35.2235 183.14 35.4545C183.416 35.6818 183.757 35.7955 184.163 35.7955ZM191.523 37.5L189.148 28.7727H191.597L192.95 34.6364H193.029L194.438 28.7727H196.842L198.273 34.6023H198.347L199.677 28.7727H202.12L199.751 37.5H197.188L195.688 32.0114H195.58L194.08 37.5H191.523ZM208.836 37.5L206.461 28.7727H208.91L210.262 34.6364H210.342L211.751 28.7727H214.154L215.586 34.6023H215.66L216.989 28.7727H219.433L217.063 37.5H214.501L213.001 32.0114H212.893L211.393 37.5H208.836ZM224.482 37.6705C223.585 37.6705 222.812 37.4886 222.164 37.125C221.52 36.7576 221.024 36.2386 220.675 35.5682C220.327 34.8939 220.153 34.0966 220.153 33.1761C220.153 32.2784 220.327 31.4905 220.675 30.8125C221.024 30.1345 221.514 29.6061 222.147 29.2273C222.783 28.8485 223.53 28.6591 224.386 28.6591C224.961 28.6591 225.497 28.7519 225.994 28.9375C226.494 29.1193 226.929 29.3939 227.3 29.7614C227.675 30.1288 227.967 30.5909 228.175 31.1477C228.384 31.7008 228.488 32.3485 228.488 33.0909V33.7557H221.119V32.2557H226.21C226.21 31.9072 226.134 31.5985 225.982 31.3295C225.831 31.0606 225.621 30.8504 225.352 30.6989C225.086 30.5436 224.778 30.4659 224.425 30.4659C224.058 30.4659 223.732 30.5511 223.448 30.7216C223.168 30.8883 222.948 31.1136 222.789 31.3977C222.63 31.678 222.549 31.9905 222.545 32.3352V33.7614C222.545 34.1932 222.624 34.5663 222.783 34.8807C222.946 35.1951 223.175 35.4375 223.471 35.608C223.766 35.7784 224.117 35.8636 224.522 35.8636C224.791 35.8636 225.037 35.8258 225.261 35.75C225.484 35.6742 225.675 35.5606 225.835 35.4091C225.994 35.2576 226.115 35.072 226.198 34.8523L228.437 35C228.323 35.5379 228.09 36.0076 227.738 36.4091C227.389 36.8068 226.939 37.1174 226.386 37.3409C225.836 37.5606 225.202 37.6705 224.482 37.6705ZM235.492 37.5L233.117 28.7727H235.566L236.918 34.6364H236.998L238.407 28.7727H240.81L242.242 34.6023H242.316L243.646 28.7727H246.089L243.719 37.5H241.157L239.657 32.0114H239.549L238.049 37.5H235.492ZM251.104 37.6705C250.222 37.6705 249.459 37.483 248.815 37.108C248.174 36.7292 247.68 36.2027 247.332 35.5284C246.983 34.8504 246.809 34.0644 246.809 33.1705C246.809 32.2689 246.983 31.4811 247.332 30.8068C247.68 30.1288 248.174 29.6023 248.815 29.2273C249.459 28.8485 250.222 28.6591 251.104 28.6591C251.987 28.6591 252.748 28.8485 253.388 29.2273C254.032 29.6023 254.529 30.1288 254.877 30.8068C255.226 31.4811 255.4 32.2689 255.4 33.1705C255.4 34.0644 255.226 34.8504 254.877 35.5284C254.529 36.2027 254.032 36.7292 253.388 37.108C252.748 37.483 251.987 37.6705 251.104 37.6705ZM251.116 35.7955C251.517 35.7955 251.853 35.6818 252.121 35.4545C252.39 35.2235 252.593 34.9091 252.729 34.5114C252.87 34.1136 252.94 33.661 252.94 33.1534C252.94 32.6458 252.87 32.1932 252.729 31.7955C252.593 31.3977 252.39 31.0833 252.121 30.8523C251.853 30.6212 251.517 30.5057 251.116 30.5057C250.71 30.5057 250.37 30.6212 250.093 30.8523C249.82 31.0833 249.614 31.3977 249.474 31.7955C249.337 32.1932 249.269 32.6458 249.269 33.1534C249.269 33.661 249.337 34.1136 249.474 34.5114C249.614 34.9091 249.82 35.2235 250.093 35.4545C250.37 35.6818 250.71 35.7955 251.116 35.7955ZM256.974 37.5V28.7727H259.32V30.2955H259.411C259.57 29.7538 259.837 29.3447 260.212 29.0682C260.587 28.7879 261.019 28.6477 261.508 28.6477C261.629 28.6477 261.76 28.6553 261.9 28.6705C262.04 28.6856 262.163 28.7064 262.269 28.733V30.8807C262.156 30.8466 261.998 30.8163 261.798 30.7898C261.597 30.7633 261.413 30.75 261.246 30.75C260.89 30.75 260.572 30.8277 260.292 30.983C260.015 31.1345 259.796 31.3466 259.633 31.6193C259.474 31.892 259.394 32.2064 259.394 32.5625V37.5H256.974ZM265.714 34.9886L265.719 32.0852H266.072L268.867 28.7727H271.646L267.89 33.1591H267.316L265.714 34.9886ZM263.521 37.5V25.8636H265.941V37.5H263.521ZM268.975 37.5L266.407 33.6989L268.021 31.9886L271.81 37.5H268.975Z" fill="white"/>
<defs>
<clipPath id="clip0_805_2503">
<rect width="28" height="28" fill="white" transform="translate(71 18)"/>
</clipPath>
</defs>
</svg>
