<svg width="19" height="19" viewBox="0 0 19 19" fill="none" xmlns="http://www.w3.org/2000/svg">
<path d="M14.1667 1.49999C14.3856 1.28112 14.6455 1.1075 14.9314 0.989049C15.2174 0.870597 15.5239 0.809631 15.8334 0.809631C16.1429 0.809631 16.4494 0.870597 16.7354 0.989049C17.0214 1.1075 17.2812 1.28112 17.5001 1.49999C17.719 1.71886 17.8926 1.97869 18.011 2.26466C18.1295 2.55063 18.1904 2.85713 18.1904 3.16665C18.1904 3.47618 18.1295 3.78268 18.011 4.06865C17.8926 4.35461 17.719 4.61445 17.5001 4.83332L6.25008 16.0833L1.66675 17.3333L2.91675 12.75L14.1667 1.49999Z" stroke="#737B7D" stroke-width="1.5" stroke-linecap="round" stroke-linejoin="round"/>
</svg>
